# xmcd
#
# Track frame offsets: 
#        150
#        14733
#        30333
#        43995
#        55136
#        66183
#        79050
#        97706
#        108906
#        119531
#        131745
#        143947
#
# Disc length: 2099 seconds
#
# Revision: 3
# Processed by: cddbd v1.5.2PL0 Copyright (c) Steve Scherf et al.
# Submitted via: ExactAudioCopyFreeDBPlugin 1.0
#
DISCID=a308310c
DTITLE=Merle Haggard - Roots Volume. 1
DYEAR=2001
DGENRE=Country
TTITLE0=Always Late (With Your Kisses)
TTITLE1=More Than My Old Guitar
TTITLE2=If You've Got The Money (I've Got The Time)
TTITLE3=Look Wat Thoughts Will Do
TTITLE4=My Baby's Just Like Money
TTITLE5=Honky Tonkin'
TTITLE6=Runaway Mama
TTITLE7=I'll Sign My Heart Away
TTITLE8=I've Got A Tender Heart
TTITLE9=The Wild Side Of Life
TTITLE10=Take These Chains From My Heart
TTITLE11=I Want To Be With You Always
EXTD=
EXTT0=
EXTT1=
EXTT2=
EXTT3=
EXTT4=
EXTT5=
EXTT6=
EXTT7=
EXTT8=
EXTT9=
EXTT10=
EXTT11=
PLAYORDER=
